<?xml version="1.0" encoding="UTF-8" standalone="no"?>
<!DOCTYPE svg PUBLIC "-//W3C//DTD SVG 1.1//EN" "http://www.w3.org/Graphics/SVG/1.1/DTD/svg11.dtd">
<svg xmlns="http://www.w3.org/2000/svg" version="1.1" viewBox="0 0 96 96">
<g stroke-width="2.00" fill="none" stroke-linecap="butt">
<path stroke="#149652" vector-effect="non-scaling-stroke" d="
  M 38.25 17.46
  L 35.21 19.75"
/>
<path stroke="#7bc09c" vector-effect="non-scaling-stroke" d="
  M 35.21 19.75
  C 26.96 11.01 13.73 18.87 16.47 30.58"
/>
<path stroke="#149652" vector-effect="non-scaling-stroke" d="
  M 16.47 30.58
  Q 14.76 30.08 12.54 30.75"
/>
<path stroke="#0f8f4c" vector-effect="non-scaling-stroke" d="
  M 75.96 40.25
  L 73.03 41.31
  Q 71.25 41.95 72.78 43.06
  Q 74.62 44.39 77.25 43.46"
/>
<path stroke="#0f8f4c" vector-effect="non-scaling-stroke" d="
  M 78.50 46.71
  L 74.98 49.27
  A 1.00 1.00 0.0 0 1 73.59 49.06
  Q 71.82 46.69 69.03 46.14
  A 1.00 1.00 0.0 0 0 68.23 46.32
  L 64.67 49.03
  A 1.00 1.00 0.0 0 1 63.49 49.05
  L 59.20 46.06
  A 1.00 0.99 -45.2 0 0 58.04 46.07
  L 53.91 49.04
  A 1.01 1.01 0.0 0 1 52.73 49.03
  L 48.67 46.07
  A 0.99 0.99 0.0 0 0 47.52 46.05
  L 43.15 49.05
  A 1.00 1.00 0.0 0 1 42.00 49.04
  L 37.86 46.06
  A 1.01 1.01 0.0 0 0 36.69 46.07
  L 32.58 49.01
  A 1.00 1.00 0.0 0 1 31.43 49.02
  L 27.09 45.97
  A 1.01 1.00 43.3 0 0 25.90 46.00
  L 22.18 48.86
  A 1.02 1.02 0.0 0 1 21.07 48.94
  L 17.38 46.84"
/>
<path stroke="#0f8f4c" vector-effect="non-scaling-stroke" d="
  M 18.96 42.75
  Q 21.43 44.80 23.26 42.95
  A 1.00 1.00 0.0 0 0 23.04 41.38
  Q 21.62 40.58 20.00 40.29"
/>
<path stroke="#72b08f" vector-effect="non-scaling-stroke" d="
  M 35.21 19.75
  C 39.62 25.50 38.63 32.10 32.47 36.03
  Q 23.26 41.89 16.47 30.58"
/>
<path stroke="#0f8f4c" vector-effect="non-scaling-stroke" d="
  M 79.71 51.00
  L 75.03 53.92
  A 1.00 1.00 0.0 0 1 73.92 53.88
  L 69.85 50.93
  A 1.01 1.01 0.0 0 0 68.66 50.94
  L 64.55 54.05
  A 1.00 1.00 0.0 0 1 63.35 54.05
  L 59.21 50.98
  A 1.01 0.99 -43.5 0 0 58.04 50.96
  L 53.81 53.93
  A 1.00 0.99 45.2 0 1 52.65 53.92
  L 48.62 51.00
  A 1.00 0.99 -43.8 0 0 47.48 50.98
  L 43.07 53.91
  A 1.01 1.01 0.0 0 1 41.93 53.89
  L 37.94 51.00
  A 1.01 1.00 45.5 0 0 36.78 50.98
  L 32.58 53.88
  A 1.01 1.00 -45.3 0 1 31.44 53.89
  L 27.16 50.95
  A 0.99 0.99 0.0 0 0 26.00 50.97
  L 21.93 54.00
  A 1.00 1.00 0.0 0 1 20.72 53.98
  L 16.34 50.56"
/>
<path stroke="#149652" vector-effect="non-scaling-stroke" d="
  M 81.45 18.60
  Q 80.57 19.58 79.61 19.77
  A 1.00 0.98 11.5 0 0 79.02 20.15
  Q 78.58 20.73 78.46 21.50"
/>
<path stroke="#7bc09c" vector-effect="non-scaling-stroke" d="
  M 78.46 21.50
  C 72.46 12.18 59.71 15.49 58.04 26.25"
/>
<path stroke="#149652" vector-effect="non-scaling-stroke" d="
  M 58.04 26.25
  L 54.21 24.50"
/>
<path stroke="#72b08f" vector-effect="non-scaling-stroke" d="
  M 78.46 21.50
  C 86.32 39.09 58.35 44.88 58.04 26.25"
/>
<path stroke="#0f8f4c" vector-effect="non-scaling-stroke" d="
  M 79.96 55.75
  Q 77.59 56.81 75.71 58.75
  A 1.00 0.99 37.5 0 1 74.48 58.91
  L 70.16 56.35"
/>
<path stroke="#246242" vector-effect="non-scaling-stroke" d="
  M 70.16 56.35
  Q 69.18 52.81 66.62 54.80
  A 1.04 1.02 75.3 0 0 66.25 55.45
  L 65.69 59.21"
/>
<path stroke="#0f8f4c" vector-effect="non-scaling-stroke" d="
  M 65.69 59.21
  Q 61.97 58.81 59.28 56.19
  A 1.00 0.99 49.4 0 0 58.00 56.09
  L 53.91 59.06
  A 1.02 1.02 0.0 0 1 52.73 59.06
  L 48.62 56.07
  A 1.01 1.01 0.0 0 0 47.48 56.05
  L 44.05 58.34
  Q 42.16 59.60 40.81 58.35
  C 35.20 53.12 35.58 59.38 30.29 59.25"
/>
<path stroke="#246242" vector-effect="non-scaling-stroke" d="
  M 30.29 59.25
  L 29.77 55.68
  A 1.01 1.00 18.0 0 0 29.47 55.10
  Q 26.90 52.69 25.96 56.25"
/>
<path stroke="#0f8f4c" vector-effect="non-scaling-stroke" d="
  M 25.96 56.25
  Q 23.76 57.15 22.19 59.04
  A 1.01 1.01 0.0 0 1 20.86 59.23
  L 16.04 56.00"
/>
<path stroke="#0f8f4c" vector-effect="non-scaling-stroke" d="
  M 79.25 61.79
  L 74.79 63.79
  A 1.01 0.99 48.9 0 1 73.86 63.72
  L 69.46 61.00"
/>
<path stroke="#0f8f4c" vector-effect="non-scaling-stroke" d="
  M 26.54 61.00
  L 21.59 64.06
  A 1.00 1.00 0.0 0 1 20.25 63.79
  Q 18.86 61.84 16.54 61.75"
/>
<path stroke="#296a48" vector-effect="non-scaling-stroke" d="
  M 70.16 56.35
  L 69.46 61.00"
/>
<path stroke="#246242" vector-effect="non-scaling-stroke" d="
  M 69.46 61.00
  L 68.04 64.75"
/>
<path stroke="#333334" vector-effect="non-scaling-stroke" d="
  M 68.04 64.75
  Q 65.79 65.25 64.29 63.50"
/>
<path stroke="#296a48" vector-effect="non-scaling-stroke" d="
  M 64.29 63.50
  L 65.69 59.21"
/>
<path stroke="#1e603e" vector-effect="non-scaling-stroke" d="
  M 64.29 63.50
  L 63.96 64.00"
/>
<path stroke="#0f8f4c" vector-effect="non-scaling-stroke" d="
  M 63.96 64.00
  Q 61.51 63.08 59.41 61.03
  A 1.00 0.99 49.1 0 0 58.14 60.93
  L 53.82 63.94
  A 1.02 1.01 45.2 0 1 52.66 63.93
  L 48.63 61.00
  A 1.01 0.99 45.8 0 0 47.49 60.97
  L 43.00 63.95
  A 1.01 1.00 46.7 0 1 41.84 63.91
  L 37.94 60.91
  A 1.01 1.00 -44.1 0 0 36.74 60.90
  L 32.21 64.25"
/>
<path stroke="#1e603e" vector-effect="non-scaling-stroke" d="
  M 32.21 64.25
  L 31.75 63.96"
/>
<path stroke="#296a48" vector-effect="non-scaling-stroke" d="
  M 30.29 59.25
  L 31.75 63.96"
/>
<path stroke="#333334" vector-effect="non-scaling-stroke" d="
  M 31.75 63.96
  L 27.54 64.00"
/>
<path stroke="#246242" vector-effect="non-scaling-stroke" d="
  M 27.54 64.00
  L 26.54 61.00"
/>
<path stroke="#296a48" vector-effect="non-scaling-stroke" d="
  M 26.54 61.00
  L 25.96 56.25"
/>
<path stroke="#0f8f4c" vector-effect="non-scaling-stroke" d="
  M 77.46 68.50
  Q 76.16 68.18 75.14 69.01
  A 0.99 0.99 0.0 0 1 73.97 69.07
  C 71.60 67.55 70.85 65.64 67.50 66.46"
/>
<path stroke="#195837" vector-effect="non-scaling-stroke" d="
  M 67.50 66.46
  L 68.04 64.75"
/>
<path stroke="#195837" vector-effect="non-scaling-stroke" d="
  M 27.54 64.00
  L 28.21 65.75"
/>
<path stroke="#0f8f4c" vector-effect="non-scaling-stroke" d="
  M 28.21 65.75
  Q 24.74 66.49 22.01 68.80
  A 1.01 1.01 0.0 0 1 20.96 68.95
  Q 19.74 68.41 19.04 69.50"
/>
<path stroke="#1e603e" vector-effect="non-scaling-stroke" d="
  M 67.50 66.46
  Q 65.13 70.31 61.71 73.25"
/>
<path stroke="#195837" vector-effect="non-scaling-stroke" d="
  M 61.71 73.25
  L 58.00 75.71"
/>
<path stroke="#1e603e" vector-effect="non-scaling-stroke" d="
  M 58.00 75.71
  Q 47.47 80.47 37.25 75.29"
/>
<path stroke="#195837" vector-effect="non-scaling-stroke" d="
  M 37.25 75.29
  L 33.59 72.85"
/>
<path stroke="#1e603e" vector-effect="non-scaling-stroke" d="
  M 33.59 72.85
  L 28.21 65.75"
/>
<path stroke="#1e603e" vector-effect="non-scaling-stroke" d="
  M 34.71 68.00
  C 41.85 75.58 53.80 75.97 61.04 68.25"
/>
<path stroke="#195837" vector-effect="non-scaling-stroke" d="
  M 63.96 64.00
  L 61.04 68.25"
/>
<path stroke="#0f8f4c" vector-effect="non-scaling-stroke" d="
  M 61.04 68.25
  C 59.72 63.72 55.66 67.55 54.03 69.07
  A 1.00 0.99 -47.9 0 1 52.76 69.14
  L 48.62 66.09
  A 1.00 0.99 -43.2 0 0 47.47 66.06
  L 44.20 68.23
  Q 42.21 69.55 40.77 68.25
  Q 36.71 64.60 34.71 68.00"
/>
<path stroke="#195837" vector-effect="non-scaling-stroke" d="
  M 34.71 68.00
  Q 32.99 66.44 32.21 64.25"
/>
<path stroke="#0f8f4c" vector-effect="non-scaling-stroke" d="
  M 74.54 73.75
  Q 72.10 72.89 70.02 71.08
  A 1.01 1.01 0.0 0 0 68.85 70.98
  C 66.93 72.14 63.68 75.59 61.71 73.25"
/>
<path stroke="#0f8f4c" vector-effect="non-scaling-stroke" d="
  M 33.59 72.85
  Q 29.95 74.43 27.19 71.28
  A 1.00 1.00 0.0 0 0 25.78 71.19
  Q 23.75 72.97 21.08 73.42"
/>
<path stroke="#0f8f4c" vector-effect="non-scaling-stroke" d="
  M 37.25 75.29
  Q 35.26 77.56 32.46 78.92
  A 1.00 0.98 45.6 0 1 31.56 78.90
  C 29.93 78.04 25.52 73.95 24.71 78.00"
/>
<path stroke="#0f8f4c" vector-effect="non-scaling-stroke" d="
  M 71.29 78.00
  C 70.13 73.70 66.17 77.97 64.38 78.97
  A 1.00 1.00 0.0 0 1 63.37 78.96
  L 58.00 75.71"
/>
<path stroke="#0f8f4c" vector-effect="non-scaling-stroke" d="
  M 62.79 84.25
  L 59.29 81.24
  A 0.99 0.98 50.1 0 0 58.14 81.13
  L 53.61 83.78
  A 1.02 1.01 46.9 0 1 52.53 83.74
  L 48.59 81.01
  A 1.00 0.99 -43.7 0 0 47.47 80.99
  L 43.12 83.89
  A 1.00 1.00 0.0 0 1 42.02 83.89
  L 37.72 81.07
  A 1.00 0.99 -46.7 0 0 36.58 81.11
  L 32.71 84.00"
/>
<path stroke="#8c8b8c" vector-effect="non-scaling-stroke" d="
  M 31.89 26.03
  A 3.89 3.89 0.0 0 0 28.00 22.14
  A 3.89 3.89 0.0 0 0 24.11 26.03
  A 3.89 3.89 0.0 0 0 28.00 29.92
  A 3.89 3.89 0.0 0 0 31.89 26.03"
/>
<path stroke="#8c8b8c" vector-effect="non-scaling-stroke" d="
  M 71.90 26.03
  A 3.90 3.90 0.0 0 0 68.00 22.13
  A 3.90 3.90 0.0 0 0 64.10 26.03
  A 3.90 3.90 0.0 0 0 68.00 29.93
  A 3.90 3.90 0.0 0 0 71.90 26.03"
/>
<path stroke="#0f8f4c" vector-effect="non-scaling-stroke" d="
  M 48.68 30.91
  L 51.86 33.44
  Q 52.06 33.59 52.30 33.64
  Q 55.67 34.27 54.76 31.42
  C 54.10 29.34 50.16 27.16 48.29 26.14
  A 1.00 0.99 42.5 0 0 47.26 26.18
  C 44.56 27.94 41.55 29.08 41.10 32.63
  A 1.01 1.01 0.0 0 0 41.58 33.62
  C 43.08 34.49 45.44 32.38 47.47 30.89
  A 1.00 1.00 0.0 0 1 48.68 30.91"
/>
<path stroke="#0f8f4c" vector-effect="non-scaling-stroke" d="
  M 38.81 41.64
  L 41.93 43.89
  A 1.00 0.99 45.9 0 0 43.06 43.91
  L 47.50 40.96
  A 1.01 1.00 46.7 0 1 48.66 41.00
  L 52.61 43.99
  A 0.99 0.99 0.0 0 0 53.80 44.00
  L 58.00 40.95
  A 1.00 1.00 0.0 0 1 59.18 40.95
  L 63.22 43.86
  A 0.98 0.97 48.5 0 0 64.28 43.93
  L 65.31 43.36
  Q 67.36 42.23 65.13 41.53
  Q 60.93 40.21 57.87 36.97
  A 1.01 0.99 -42.5 0 0 56.48 36.92
  L 54.09 39.05
  A 1.00 0.99 41.4 0 1 52.84 39.12
  L 48.56 36.05
  A 1.01 1.00 44.7 0 0 47.39 36.05
  L 43.21 39.06
  A 1.00 1.00 0.0 0 1 42.02 39.04
  L 39.35 37.03
  A 1.01 1.00 40.4 0 0 38.03 37.13
  Q 34.93 40.31 30.66 41.49
  Q 28.17 42.18 30.48 43.35
  Q 33.09 44.67 35.42 41.88
  Q 36.82 40.20 38.81 41.64"
/>
</g>
<g>
<path fill="#1da65f" d="
  M 38.25 17.46
  L 35.21 19.75
  C 26.96 11.01 13.73 18.87 16.47 30.58
  Q 14.76 30.08 12.54 30.75
  C 9.23 15.07 27.16 5.64 38.25 17.46
  Z"
/>
<path fill="#1da65f" d="
  M 81.45 18.60
  Q 80.57 19.58 79.61 19.77
  A 1.00 0.98 11.5 0 0 79.02 20.15
  Q 78.58 20.73 78.46 21.50
  C 72.46 12.18 59.71 15.49 58.04 26.25
  L 54.21 24.50
  C 56.96 10.85 72.76 8.00 81.45 18.60
  Z"
/>
<path fill="#d9d9d9" d="
  M 35.21 19.75
  C 39.62 25.50 38.63 32.10 32.47 36.03
  Q 23.26 41.89 16.47 30.58
  C 13.73 18.87 26.96 11.01 35.21 19.75
  Z
  M 31.89 26.03
  A 3.89 3.89 0.0 0 0 28.00 22.14
  A 3.89 3.89 0.0 0 0 24.11 26.03
  A 3.89 3.89 0.0 0 0 28.00 29.92
  A 3.89 3.89 0.0 0 0 31.89 26.03
  Z"
/>
<path fill="#d9d9d9" d="
  M 78.46 21.50
  C 86.32 39.09 58.35 44.88 58.04 26.25
  C 59.71 15.49 72.46 12.18 78.46 21.50
  Z
  M 71.90 26.03
  A 3.90 3.90 0.0 0 0 68.00 22.13
  A 3.90 3.90 0.0 0 0 64.10 26.03
  A 3.90 3.90 0.0 0 0 68.00 29.93
  A 3.90 3.90 0.0 0 0 71.90 26.03
  Z"
/>
<path fill="#0a8645" d="
  M 38.25 17.46
  Q 40.79 20.16 41.63 23.77
  A 1.01 1.00 -10.9 0 0 42.76 24.53
  Q 48.46 23.64 54.21 24.50
  L 58.04 26.25
  C 58.35 44.88 86.32 39.09 78.46 21.50
  Q 78.58 20.73 79.02 20.15
  A 1.00 0.98 11.5 0 1 79.61 19.77
  Q 80.57 19.58 81.45 18.60
  Q 88.33 32.23 75.96 40.25
  L 73.03 41.31
  Q 71.25 41.95 72.78 43.06
  Q 74.62 44.39 77.25 43.46
  L 78.50 46.71
  L 74.98 49.27
  A 1.00 1.00 0.0 0 1 73.59 49.06
  Q 71.82 46.69 69.03 46.14
  A 1.00 1.00 0.0 0 0 68.23 46.32
  L 64.67 49.03
  A 1.00 1.00 0.0 0 1 63.49 49.05
  L 59.20 46.06
  A 1.00 0.99 -45.2 0 0 58.04 46.07
  L 53.91 49.04
  A 1.01 1.01 0.0 0 1 52.73 49.03
  L 48.67 46.07
  A 0.99 0.99 0.0 0 0 47.52 46.05
  L 43.15 49.05
  A 1.00 1.00 0.0 0 1 42.00 49.04
  L 37.86 46.06
  A 1.01 1.01 0.0 0 0 36.69 46.07
  L 32.58 49.01
  A 1.00 1.00 0.0 0 1 31.43 49.02
  L 27.09 45.97
  A 1.01 1.00 43.3 0 0 25.90 46.00
  L 22.18 48.86
  A 1.02 1.02 0.0 0 1 21.07 48.94
  L 17.38 46.84
  L 18.96 42.75
  Q 21.43 44.80 23.26 42.95
  A 1.00 1.00 0.0 0 0 23.04 41.38
  Q 21.62 40.58 20.00 40.29
  Q 14.39 37.00 12.54 30.75
  Q 14.76 30.08 16.47 30.58
  Q 23.26 41.89 32.47 36.03
  C 38.63 32.10 39.62 25.50 35.21 19.75
  L 38.25 17.46
  Z
  M 48.68 30.91
  L 51.86 33.44
  Q 52.06 33.59 52.30 33.64
  Q 55.67 34.27 54.76 31.42
  C 54.10 29.34 50.16 27.16 48.29 26.14
  A 1.00 0.99 42.5 0 0 47.26 26.18
  C 44.56 27.94 41.55 29.08 41.10 32.63
  A 1.01 1.01 0.0 0 0 41.58 33.62
  C 43.08 34.49 45.44 32.38 47.47 30.89
  A 1.00 1.00 0.0 0 1 48.68 30.91
  Z
  M 38.81 41.64
  L 41.93 43.89
  A 1.00 0.99 45.9 0 0 43.06 43.91
  L 47.50 40.96
  A 1.01 1.00 46.7 0 1 48.66 41.00
  L 52.61 43.99
  A 0.99 0.99 0.0 0 0 53.80 44.00
  L 58.00 40.95
  A 1.00 1.00 0.0 0 1 59.18 40.95
  L 63.22 43.86
  A 0.98 0.97 48.5 0 0 64.28 43.93
  L 65.31 43.36
  Q 67.36 42.23 65.13 41.53
  Q 60.93 40.21 57.87 36.97
  A 1.01 0.99 -42.5 0 0 56.48 36.92
  L 54.09 39.05
  A 1.00 0.99 41.4 0 1 52.84 39.12
  L 48.56 36.05
  A 1.01 1.00 44.7 0 0 47.39 36.05
  L 43.21 39.06
  A 1.00 1.00 0.0 0 1 42.02 39.04
  L 39.35 37.03
  A 1.01 1.00 40.4 0 0 38.03 37.13
  Q 34.93 40.31 30.66 41.49
  Q 28.17 42.18 30.48 43.35
  Q 33.09 44.67 35.42 41.88
  Q 36.82 40.20 38.81 41.64
  Z"
/>
<path fill="#149752" d="
  M 20.00 40.29
  Q 21.62 40.58 23.04 41.38
  A 1.00 1.00 0.0 0 1 23.26 42.95
  Q 21.43 44.80 18.96 42.75
  L 20.00 40.29
  Z"
/>
<path fill="#149752" d="
  M 75.96 40.25
  L 77.25 43.46
  Q 74.62 44.39 72.78 43.06
  Q 71.25 41.95 73.03 41.31
  L 75.96 40.25
  Z"
/>
<path fill="#149752" d="
  M 78.50 46.71
  L 79.71 51.00
  L 75.03 53.92
  A 1.00 1.00 0.0 0 1 73.92 53.88
  L 69.85 50.93
  A 1.01 1.01 0.0 0 0 68.66 50.94
  L 64.55 54.05
  A 1.00 1.00 0.0 0 1 63.35 54.05
  L 59.21 50.98
  A 1.01 0.99 -43.5 0 0 58.04 50.96
  L 53.81 53.93
  A 1.00 0.99 45.2 0 1 52.65 53.92
  L 48.62 51.00
  A 1.00 0.99 -43.8 0 0 47.48 50.98
  L 43.07 53.91
  A 1.01 1.01 0.0 0 1 41.93 53.89
  L 37.94 51.00
  A 1.01 1.00 45.5 0 0 36.78 50.98
  L 32.58 53.88
  A 1.01 1.00 -45.3 0 1 31.44 53.89
  L 27.16 50.95
  A 0.99 0.99 0.0 0 0 26.00 50.97
  L 21.93 54.00
  A 1.00 1.00 0.0 0 1 20.72 53.98
  L 16.34 50.56
  L 17.38 46.84
  L 21.07 48.94
  A 1.02 1.02 0.0 0 0 22.18 48.86
  L 25.90 46.00
  A 1.01 1.00 43.3 0 1 27.09 45.97
  L 31.43 49.02
  A 1.00 1.00 0.0 0 0 32.58 49.01
  L 36.69 46.07
  A 1.01 1.01 0.0 0 1 37.86 46.06
  L 42.00 49.04
  A 1.00 1.00 0.0 0 0 43.15 49.05
  L 47.52 46.05
  A 0.99 0.99 0.0 0 1 48.67 46.07
  L 52.73 49.03
  A 1.01 1.01 0.0 0 0 53.91 49.04
  L 58.04 46.07
  A 1.00 0.99 -45.2 0 1 59.20 46.06
  L 63.49 49.05
  A 1.00 1.00 0.0 0 0 64.67 49.03
  L 68.23 46.32
  A 1.00 1.00 0.0 0 1 69.03 46.14
  Q 71.82 46.69 73.59 49.06
  A 1.00 1.00 0.0 0 0 74.98 49.27
  L 78.50 46.71
  Z"
/>
<path fill="#0a8645" d="
  M 16.34 50.56
  L 20.72 53.98
  A 1.00 1.00 0.0 0 0 21.93 54.00
  L 26.00 50.97
  A 0.99 0.99 0.0 0 1 27.16 50.95
  L 31.44 53.89
  A 1.01 1.00 -45.3 0 0 32.58 53.88
  L 36.78 50.98
  A 1.01 1.00 45.5 0 1 37.94 51.00
  L 41.93 53.89
  A 1.01 1.01 0.0 0 0 43.07 53.91
  L 47.48 50.98
  A 1.00 0.99 -43.8 0 1 48.62 51.00
  L 52.65 53.92
  A 1.00 0.99 45.2 0 0 53.81 53.93
  L 58.04 50.96
  A 1.01 0.99 -43.5 0 1 59.21 50.98
  L 63.35 54.05
  A 1.00 1.00 0.0 0 0 64.55 54.05
  L 68.66 50.94
  A 1.01 1.01 0.0 0 1 69.85 50.93
  L 73.92 53.88
  A 1.00 1.00 0.0 0 0 75.03 53.92
  L 79.71 51.00
  L 79.96 55.75
  Q 77.59 56.81 75.71 58.75
  A 1.00 0.99 37.5 0 1 74.48 58.91
  L 70.16 56.35
  Q 69.18 52.81 66.62 54.80
  A 1.04 1.02 75.3 0 0 66.25 55.45
  L 65.69 59.21
  Q 61.97 58.81 59.28 56.19
  A 1.00 0.99 49.4 0 0 58.00 56.09
  L 53.91 59.06
  A 1.02 1.02 0.0 0 1 52.73 59.06
  L 48.62 56.07
  A 1.01 1.01 0.0 0 0 47.48 56.05
  L 44.05 58.34
  Q 42.16 59.60 40.81 58.35
  C 35.20 53.12 35.58 59.38 30.29 59.25
  L 29.77 55.68
  A 1.01 1.00 18.0 0 0 29.47 55.10
  Q 26.90 52.69 25.96 56.25
  Q 23.76 57.15 22.19 59.04
  A 1.01 1.01 0.0 0 1 20.86 59.23
  L 16.04 56.00
  L 16.34 50.56
  Z"
/>
<path fill="#3e3d3e" d="
  M 70.16 56.35
  L 69.46 61.00
  L 68.04 64.75
  Q 65.79 65.25 64.29 63.50
  L 65.69 59.21
  L 66.25 55.45
  A 1.04 1.02 75.3 0 1 66.62 54.80
  Q 69.18 52.81 70.16 56.35
  Z"
/>
<path fill="#3e3d3e" d="
  M 30.29 59.25
  L 31.75 63.96
  L 27.54 64.00
  L 26.54 61.00
  L 25.96 56.25
  Q 26.90 52.69 29.47 55.10
  A 1.01 1.00 18.0 0 1 29.77 55.68
  L 30.29 59.25
  Z"
/>
<path fill="#149752" d="
  M 79.96 55.75
  Q 80.36 58.88 79.25 61.79
  L 74.79 63.79
  A 1.01 0.99 48.9 0 1 73.86 63.72
  L 69.46 61.00
  L 70.16 56.35
  L 74.48 58.91
  A 1.00 0.99 37.5 0 0 75.71 58.75
  Q 77.59 56.81 79.96 55.75
  Z"
/>
<path fill="#149752" d="
  M 16.04 56.00
  L 20.86 59.23
  A 1.01 1.01 0.0 0 0 22.19 59.04
  Q 23.76 57.15 25.96 56.25
  L 26.54 61.00
  L 21.59 64.06
  A 1.00 1.00 0.0 0 1 20.25 63.79
  Q 18.86 61.84 16.54 61.75
  L 16.04 56.00
  Z"
/>
<path fill="#149752" d="
  M 65.69 59.21
  L 64.29 63.50
  L 63.96 64.00
  Q 61.51 63.08 59.41 61.03
  A 1.00 0.99 49.1 0 0 58.14 60.93
  L 53.82 63.94
  A 1.02 1.01 45.2 0 1 52.66 63.93
  L 48.63 61.00
  A 1.01 0.99 45.8 0 0 47.49 60.97
  L 43.00 63.95
  A 1.01 1.00 46.7 0 1 41.84 63.91
  L 37.94 60.91
  A 1.01 1.00 -44.1 0 0 36.74 60.90
  L 32.21 64.25
  L 31.75 63.96
  L 30.29 59.25
  C 35.58 59.38 35.20 53.12 40.81 58.35
  Q 42.16 59.60 44.05 58.34
  L 47.48 56.05
  A 1.01 1.01 0.0 0 1 48.62 56.07
  L 52.73 59.06
  A 1.02 1.02 0.0 0 0 53.91 59.06
  L 58.00 56.09
  A 1.00 0.99 49.4 0 1 59.28 56.19
  Q 61.97 58.81 65.69 59.21
  Z"
/>
<path fill="#0a8645" d="
  M 63.96 64.00
  L 61.04 68.25
  C 59.72 63.72 55.66 67.55 54.03 69.07
  A 1.00 0.99 -47.9 0 1 52.76 69.14
  L 48.62 66.09
  A 1.00 0.99 -43.2 0 0 47.47 66.06
  L 44.20 68.23
  Q 42.21 69.55 40.77 68.25
  Q 36.71 64.60 34.71 68.00
  Q 32.99 66.44 32.21 64.25
  L 36.74 60.90
  A 1.01 1.00 -44.1 0 1 37.94 60.91
  L 41.84 63.91
  A 1.01 1.00 46.7 0 0 43.00 63.95
  L 47.49 60.97
  A 1.01 0.99 45.8 0 1 48.63 61.00
  L 52.66 63.93
  A 1.02 1.01 45.2 0 0 53.82 63.94
  L 58.14 60.93
  A 1.00 0.99 49.1 0 1 59.41 61.03
  Q 61.51 63.08 63.96 64.00
  Z"
/>
<path fill="#0a8645" d="
  M 26.54 61.00
  L 27.54 64.00
  L 28.21 65.75
  Q 24.74 66.49 22.01 68.80
  A 1.01 1.01 0.0 0 1 20.96 68.95
  Q 19.74 68.41 19.04 69.50
  L 16.54 61.75
  Q 18.86 61.84 20.25 63.79
  A 1.00 1.00 0.0 0 0 21.59 64.06
  L 26.54 61.00
  Z"
/>
<path fill="#0a8645" d="
  M 69.46 61.00
  L 73.86 63.72
  A 1.01 0.99 48.9 0 0 74.79 63.79
  L 79.25 61.79
  L 77.46 68.50
  Q 76.16 68.18 75.14 69.01
  A 0.99 0.99 0.0 0 1 73.97 69.07
  C 71.60 67.55 70.85 65.64 67.50 66.46
  L 68.04 64.75
  L 69.46 61.00
  Z"
/>
<path fill="#282929" d="
  M 64.29 63.50
  Q 65.79 65.25 68.04 64.75
  L 67.50 66.46
  Q 65.13 70.31 61.71 73.25
  L 58.00 75.71
  Q 47.47 80.47 37.25 75.29
  L 33.59 72.85
  L 28.21 65.75
  L 27.54 64.00
  L 31.75 63.96
  L 32.21 64.25
  Q 32.99 66.44 34.71 68.00
  C 41.85 75.58 53.80 75.97 61.04 68.25
  L 63.96 64.00
  L 64.29 63.50
  Z"
/>
<path fill="#149752" d="
  M 28.21 65.75
  L 33.59 72.85
  Q 29.95 74.43 27.19 71.28
  A 1.00 1.00 0.0 0 0 25.78 71.19
  Q 23.75 72.97 21.08 73.42
  L 19.04 69.50
  Q 19.74 68.41 20.96 68.95
  A 1.01 1.01 0.0 0 0 22.01 68.80
  Q 24.74 66.49 28.21 65.75
  Z"
/>
<path fill="#149752" d="
  M 61.04 68.25
  C 53.80 75.97 41.85 75.58 34.71 68.00
  Q 36.71 64.60 40.77 68.25
  Q 42.21 69.55 44.20 68.23
  L 47.47 66.06
  A 1.00 0.99 -43.2 0 1 48.62 66.09
  L 52.76 69.14
  A 1.00 0.99 -47.9 0 0 54.03 69.07
  C 55.66 67.55 59.72 63.72 61.04 68.25
  Z"
/>
<path fill="#149752" d="
  M 77.46 68.50
  L 74.54 73.75
  Q 72.10 72.89 70.02 71.08
  A 1.01 1.01 0.0 0 0 68.85 70.98
  C 66.93 72.14 63.68 75.59 61.71 73.25
  Q 65.13 70.31 67.50 66.46
  C 70.85 65.64 71.60 67.55 73.97 69.07
  A 0.99 0.99 0.0 0 0 75.14 69.01
  Q 76.16 68.18 77.46 68.50
  Z"
/>
<path fill="#0a8645" d="
  M 33.59 72.85
  L 37.25 75.29
  Q 35.26 77.56 32.46 78.92
  A 1.00 0.98 45.6 0 1 31.56 78.90
  C 29.93 78.04 25.52 73.95 24.71 78.00
  L 21.08 73.42
  Q 23.75 72.97 25.78 71.19
  A 1.00 1.00 0.0 0 1 27.19 71.28
  Q 29.95 74.43 33.59 72.85
  Z"
/>
<path fill="#0a8645" d="
  M 74.54 73.75
  L 71.29 78.00
  C 70.13 73.70 66.17 77.97 64.38 78.97
  A 1.00 1.00 0.0 0 1 63.37 78.96
  L 58.00 75.71
  L 61.71 73.25
  C 63.68 75.59 66.93 72.14 68.85 70.98
  A 1.01 1.01 0.0 0 1 70.02 71.08
  Q 72.10 72.89 74.54 73.75
  Z"
/>
<path fill="#149752" d="
  M 37.25 75.29
  Q 47.47 80.47 58.00 75.71
  L 63.37 78.96
  A 1.00 1.00 0.0 0 0 64.38 78.97
  C 66.17 77.97 70.13 73.70 71.29 78.00
  Q 67.68 82.00 62.79 84.25
  L 59.29 81.24
  A 0.99 0.98 50.1 0 0 58.14 81.13
  L 53.61 83.78
  A 1.02 1.01 46.9 0 1 52.53 83.74
  L 48.59 81.01
  A 1.00 0.99 -43.7 0 0 47.47 80.99
  L 43.12 83.89
  A 1.00 1.00 0.0 0 1 42.02 83.89
  L 37.72 81.07
  A 1.00 0.99 -46.7 0 0 36.58 81.11
  L 32.71 84.00
  Q 28.15 81.76 24.71 78.00
  C 25.52 73.95 29.93 78.04 31.56 78.90
  A 1.00 0.98 45.6 0 0 32.46 78.92
  Q 35.26 77.56 37.25 75.29
  Z"
/>
<path fill="#0a8645" d="
  M 62.79 84.25
  Q 47.69 91.76 32.71 84.00
  L 36.58 81.11
  A 1.00 0.99 -46.7 0 1 37.72 81.07
  L 42.02 83.89
  A 1.00 1.00 0.0 0 0 43.12 83.89
  L 47.47 80.99
  A 1.00 0.99 -43.7 0 1 48.59 81.01
  L 52.53 83.74
  A 1.02 1.01 46.9 0 0 53.61 83.78
  L 58.14 81.13
  A 0.99 0.98 50.1 0 1 59.29 81.24
  L 62.79 84.25
  Z"
/>
</g>
<g>
<circle fill="#3e3d3e" cx="28.00" cy="26.03" r="3.89"/>
<circle fill="#3e3d3e" cx="68.00" cy="26.03" r="3.90"/>
<path fill="#149752" d="
  M 47.47 30.89
  C 45.44 32.38 43.08 34.49 41.58 33.62
  A 1.01 1.01 0.0 0 1 41.10 32.63
  C 41.55 29.08 44.56 27.94 47.26 26.18
  A 1.00 0.99 42.5 0 1 48.29 26.14
  C 50.16 27.16 54.10 29.34 54.76 31.42
  Q 55.67 34.27 52.30 33.64
  Q 52.06 33.59 51.86 33.44
  L 48.68 30.91
  A 1.00 1.00 0.0 0 0 47.47 30.89
  Z"
/>
<path fill="#149752" d="
  M 38.81 41.64
  Q 36.82 40.20 35.42 41.88
  Q 33.09 44.67 30.48 43.35
  Q 28.17 42.18 30.66 41.49
  Q 34.93 40.31 38.03 37.13
  A 1.01 1.00 40.4 0 1 39.35 37.03
  L 42.02 39.04
  A 1.00 1.00 0.0 0 0 43.21 39.06
  L 47.39 36.05
  A 1.01 1.00 44.7 0 1 48.56 36.05
  L 52.84 39.12
  A 1.00 0.99 41.4 0 0 54.09 39.05
  L 56.48 36.92
  A 1.01 0.99 -42.5 0 1 57.87 36.97
  Q 60.93 40.21 65.13 41.53
  Q 67.36 42.23 65.31 43.36
  L 64.28 43.93
  A 0.98 0.97 48.5 0 1 63.22 43.86
  L 59.18 40.95
  A 1.00 1.00 0.0 0 0 58.00 40.95
  L 53.80 44.00
  A 0.99 0.99 0.0 0 1 52.61 43.99
  L 48.66 41.00
  A 1.01 1.00 46.7 0 0 47.50 40.96
  L 43.06 43.91
  A 1.00 0.99 45.9 0 1 41.93 43.89
  L 38.81 41.64
  Z"
/>
</g>
</svg>
